<?xml version="1.0" encoding="UTF-8"?>
<svg id="Ebene_2" data-name="Ebene 2" xmlns="http://www.w3.org/2000/svg" viewBox="0 0 468 620">
  <defs>
    <style>
      .cls-1 {
        fill: #c69c6d;
        stroke: #42210b;
        stroke-miterlimit: 10;
        stroke-width: 22px;
      }
    </style>
  </defs>
  <path class="cls-1" d="m468.5,443.5c-57,0-84.63,47.09-91,65-6.97,19.61,3.33,38.11-11,53-10.86,11.29-24.74,12.75-46,15-16.22,1.71-58.31,3.79-62-9-2.47-8.57,12.3-23.86,28-27,13.11-2.62,19.48,4.71,27,1,11.22-5.54,14.71-30.59,9-50-13.86-47.13-74.59-36.07-103-90-15.16-28.78-15.87-66.11-16-73-.46-24.18,4.23-33.21,0-59-1.38-8.38-2.01-8.29-13-48-9.93-35.89-9.78-37.29-13-40-11.51-9.67-25.1-1.55-83,2-18.7,1.15-25.69.81-34-2-20.62-6.98-40.26-26.19-37-40,1.24-5.25,5.37-7.94,20-16,41.67-22.96,56.15-27.6,72-42,13.25-12.03,8.32-13.97,20-24,28.81-24.75,75.69-34.08,107-16,12.4,7.16,19.07,16.72,39,59,25.7,54.52,42,95.21,46,107,16.31,48.06,57.31,69,141,69"/>
</svg>