<?xml version="1.0" encoding="UTF-8"?>
<svg id="Ebene_2" data-name="Ebene 2" xmlns="http://www.w3.org/2000/svg" viewBox="0 0 351 620">
  <defs>
    <style>
      .cls-1 {
        fill: #c69c6d;
        stroke: #42210b;
        stroke-miterlimit: 10;
        stroke-width: 22px;
      }
    </style>
  </defs>
  <path class="cls-1" d="m-1.5,443.5c21,0,63-5,86,9,18.9,11.5,20.71,38.67,14,57-5.46,14.92-15,24-15,24-9.79,9.32-19.41,11.37-19,16,.5,5.59,15.02,8.42,18,9,5.74,1.12,30.22,5.88,41-7,5.54-6.62,2.15-11.54,5-39,3.13-30.11,8.14-33.15,10-34,9.01-4.09,21.97,8.02,23,9,14.6,13.94,18.41,40.8,8,52-5.09,5.47-12.8,6.38-20,17-2.19,3.24-3.81,5.69-3,8,2.19,6.27,20.44,6.46,34,3,9.61-2.45,20.54-5.23,25-14,5.92-11.64-7.21-18.78-8-42-.55-16.33,5.71-19.65,6-46,.12-10.66-.84-16.96-5-22-6.39-7.74-16.76-8.19-21-9-10.29-1.97-53.59-60.75-38.28-78.43,3.83-4.42,9.98-4.54,26.28-3.57,43.43,2.58,61.37,7.36,75,8,53.93,2.52,98.68-57.11,98-58-.38-.5-15.3,18-44,28-40.01,13.95-79.59,1.9-117-10-39.99-12.72-40.29-19.82-74-30-44.25-13.36-80.25-12.16-103.5-11.65"/>
</svg>